<mxfile host="app.diagrams.net" modified="2021-04-07T12:09:54.597Z" agent="5.0 (X11; Linux x86_64) AppleWebKit/537.36 (KHTML, like Gecko) Chrome/86.0.4240.111 Safari/537.36" etag="MZoVc4DD3Z6XsRoxMluy" version="14.4.8" type="github">
  <diagram id="C5RBs43oDa-KdzZeNtuy" name="Page-1">
    <mxGraphModel dx="1357" dy="897" grid="0" gridSize="10" guides="1" tooltips="1" connect="1" arrows="1" fold="1" page="1" pageScale="1" pageWidth="827" pageHeight="1169" math="0" shadow="0">
      <root>
        <mxCell id="WIyWlLk6GJQsqaUBKTNV-0" />
        <mxCell id="WIyWlLk6GJQsqaUBKTNV-1" parent="WIyWlLk6GJQsqaUBKTNV-0" />
        <mxCell id="JbkMTvJ7BR03JZhLj7be-27" style="edgeStyle=orthogonalEdgeStyle;rounded=0;orthogonalLoop=1;jettySize=auto;html=1;exitX=0.5;exitY=1;exitDx=0;exitDy=0;" edge="1" parent="WIyWlLk6GJQsqaUBKTNV-1" source="JbkMTvJ7BR03JZhLj7be-0" target="JbkMTvJ7BR03JZhLj7be-18">
          <mxGeometry relative="1" as="geometry" />
        </mxCell>
        <mxCell id="JbkMTvJ7BR03JZhLj7be-0" value="开始" style="ellipse;whiteSpace=wrap;html=1;" vertex="1" parent="WIyWlLk6GJQsqaUBKTNV-1">
          <mxGeometry x="110" y="100" width="120" height="80" as="geometry" />
        </mxCell>
        <mxCell id="JbkMTvJ7BR03JZhLj7be-28" style="edgeStyle=orthogonalEdgeStyle;rounded=0;orthogonalLoop=1;jettySize=auto;html=1;exitX=0.5;exitY=1;exitDx=0;exitDy=0;" edge="1" parent="WIyWlLk6GJQsqaUBKTNV-1" source="JbkMTvJ7BR03JZhLj7be-18" target="JbkMTvJ7BR03JZhLj7be-19">
          <mxGeometry relative="1" as="geometry" />
        </mxCell>
        <mxCell id="JbkMTvJ7BR03JZhLj7be-18" value="模型设计" style="rounded=0;whiteSpace=wrap;html=1;" vertex="1" parent="WIyWlLk6GJQsqaUBKTNV-1">
          <mxGeometry x="110" y="220" width="120" height="60" as="geometry" />
        </mxCell>
        <mxCell id="JbkMTvJ7BR03JZhLj7be-29" style="edgeStyle=orthogonalEdgeStyle;rounded=0;orthogonalLoop=1;jettySize=auto;html=1;exitX=0.5;exitY=1;exitDx=0;exitDy=0;" edge="1" parent="WIyWlLk6GJQsqaUBKTNV-1" source="JbkMTvJ7BR03JZhLj7be-19" target="JbkMTvJ7BR03JZhLj7be-21">
          <mxGeometry relative="1" as="geometry" />
        </mxCell>
        <mxCell id="JbkMTvJ7BR03JZhLj7be-19" value="模型训练" style="rounded=0;whiteSpace=wrap;html=1;" vertex="1" parent="WIyWlLk6GJQsqaUBKTNV-1">
          <mxGeometry x="110" y="320" width="120" height="60" as="geometry" />
        </mxCell>
        <mxCell id="JbkMTvJ7BR03JZhLj7be-30" style="edgeStyle=orthogonalEdgeStyle;rounded=0;orthogonalLoop=1;jettySize=auto;html=1;exitX=0.5;exitY=1;exitDx=0;exitDy=0;entryX=0.5;entryY=0;entryDx=0;entryDy=0;" edge="1" parent="WIyWlLk6GJQsqaUBKTNV-1" source="JbkMTvJ7BR03JZhLj7be-21" target="JbkMTvJ7BR03JZhLj7be-22">
          <mxGeometry relative="1" as="geometry" />
        </mxCell>
        <mxCell id="JbkMTvJ7BR03JZhLj7be-31" style="edgeStyle=orthogonalEdgeStyle;rounded=0;orthogonalLoop=1;jettySize=auto;html=1;exitX=1;exitY=0.5;exitDx=0;exitDy=0;" edge="1" parent="WIyWlLk6GJQsqaUBKTNV-1" source="JbkMTvJ7BR03JZhLj7be-21" target="JbkMTvJ7BR03JZhLj7be-23">
          <mxGeometry relative="1" as="geometry" />
        </mxCell>
        <mxCell id="JbkMTvJ7BR03JZhLj7be-21" value="离线评测" style="rhombus;whiteSpace=wrap;html=1;" vertex="1" parent="WIyWlLk6GJQsqaUBKTNV-1">
          <mxGeometry x="130" y="420" width="80" height="80" as="geometry" />
        </mxCell>
        <mxCell id="JbkMTvJ7BR03JZhLj7be-22" value="结束" style="ellipse;whiteSpace=wrap;html=1;" vertex="1" parent="WIyWlLk6GJQsqaUBKTNV-1">
          <mxGeometry x="110" y="545" width="120" height="80" as="geometry" />
        </mxCell>
        <mxCell id="JbkMTvJ7BR03JZhLj7be-32" style="edgeStyle=orthogonalEdgeStyle;rounded=0;orthogonalLoop=1;jettySize=auto;html=1;exitX=1;exitY=0.5;exitDx=0;exitDy=0;entryX=0;entryY=0.5;entryDx=0;entryDy=0;" edge="1" parent="WIyWlLk6GJQsqaUBKTNV-1" source="JbkMTvJ7BR03JZhLj7be-23" target="JbkMTvJ7BR03JZhLj7be-24">
          <mxGeometry relative="1" as="geometry" />
        </mxCell>
        <mxCell id="JbkMTvJ7BR03JZhLj7be-23" value="原因分析" style="rounded=0;whiteSpace=wrap;html=1;" vertex="1" parent="WIyWlLk6GJQsqaUBKTNV-1">
          <mxGeometry x="280" y="430" width="120" height="60" as="geometry" />
        </mxCell>
        <mxCell id="JbkMTvJ7BR03JZhLj7be-33" style="edgeStyle=orthogonalEdgeStyle;rounded=0;orthogonalLoop=1;jettySize=auto;html=1;exitX=0.5;exitY=0;exitDx=0;exitDy=0;entryX=0.5;entryY=1;entryDx=0;entryDy=0;" edge="1" parent="WIyWlLk6GJQsqaUBKTNV-1" source="JbkMTvJ7BR03JZhLj7be-24" target="JbkMTvJ7BR03JZhLj7be-25">
          <mxGeometry relative="1" as="geometry" />
        </mxCell>
        <mxCell id="JbkMTvJ7BR03JZhLj7be-35" style="edgeStyle=orthogonalEdgeStyle;rounded=0;orthogonalLoop=1;jettySize=auto;html=1;exitX=1;exitY=0.5;exitDx=0;exitDy=0;entryX=0.5;entryY=0;entryDx=0;entryDy=0;" edge="1" parent="WIyWlLk6GJQsqaUBKTNV-1" source="JbkMTvJ7BR03JZhLj7be-24" target="JbkMTvJ7BR03JZhLj7be-18">
          <mxGeometry relative="1" as="geometry" />
        </mxCell>
        <mxCell id="JbkMTvJ7BR03JZhLj7be-24" value="训练集覆盖不完全?" style="rhombus;whiteSpace=wrap;html=1;" vertex="1" parent="WIyWlLk6GJQsqaUBKTNV-1">
          <mxGeometry x="480" y="420" width="160" height="80" as="geometry" />
        </mxCell>
        <mxCell id="JbkMTvJ7BR03JZhLj7be-34" style="edgeStyle=orthogonalEdgeStyle;rounded=0;orthogonalLoop=1;jettySize=auto;html=1;exitX=0.5;exitY=0;exitDx=0;exitDy=0;entryX=0.5;entryY=0;entryDx=0;entryDy=0;" edge="1" parent="WIyWlLk6GJQsqaUBKTNV-1" source="JbkMTvJ7BR03JZhLj7be-25" target="JbkMTvJ7BR03JZhLj7be-19">
          <mxGeometry relative="1" as="geometry" />
        </mxCell>
        <mxCell id="JbkMTvJ7BR03JZhLj7be-25" value="增加训练集" style="rounded=0;whiteSpace=wrap;html=1;" vertex="1" parent="WIyWlLk6GJQsqaUBKTNV-1">
          <mxGeometry x="500" y="320" width="120" height="60" as="geometry" />
        </mxCell>
        <mxCell id="JbkMTvJ7BR03JZhLj7be-36" value="合格" style="text;html=1;strokeColor=none;fillColor=none;align=center;verticalAlign=middle;whiteSpace=wrap;rounded=0;" vertex="1" parent="WIyWlLk6GJQsqaUBKTNV-1">
          <mxGeometry x="180" y="500" width="40" height="20" as="geometry" />
        </mxCell>
        <mxCell id="JbkMTvJ7BR03JZhLj7be-37" value="不合格" style="text;html=1;strokeColor=none;fillColor=none;align=center;verticalAlign=middle;whiteSpace=wrap;rounded=0;" vertex="1" parent="WIyWlLk6GJQsqaUBKTNV-1">
          <mxGeometry x="220" y="440" width="40" height="20" as="geometry" />
        </mxCell>
        <mxCell id="JbkMTvJ7BR03JZhLj7be-38" value="是" style="text;html=1;strokeColor=none;fillColor=none;align=center;verticalAlign=middle;whiteSpace=wrap;rounded=0;" vertex="1" parent="WIyWlLk6GJQsqaUBKTNV-1">
          <mxGeometry x="570" y="390" width="40" height="20" as="geometry" />
        </mxCell>
        <mxCell id="JbkMTvJ7BR03JZhLj7be-41" value="否" style="text;html=1;strokeColor=none;fillColor=none;align=center;verticalAlign=middle;whiteSpace=wrap;rounded=0;" vertex="1" parent="WIyWlLk6GJQsqaUBKTNV-1">
          <mxGeometry x="670" y="430" width="40" height="20" as="geometry" />
        </mxCell>
      </root>
    </mxGraphModel>
  </diagram>
</mxfile>
